<svg version="1" xmlns="http://www.w3.org/2000/svg" width="1253.333" height="1253.333" viewBox="0 0 940.000000 940.000000"><path d="M734 166.9c-6.9 2.6-55.9 25.3-103.2 47.7-58.9 28-130 69.1-168.3 97.4-17.8 13.1-39.2 35.4-61.5 64-44.5 57-83.5 122.6-80.3 134.9.7 2.9 3.5 2.6 6.7-.6 4.7-4.6 20.6-28.8 33.6-50.8 28.4-48.3 53.3-80.2 86-110.3 47.8-44.1 98.2-75 205.5-126 22.2-10.5 84.4-42.7 89.8-46.3 8.4-5.8 10.7-9.8 6.8-11.9-3.1-1.6-7-1.1-15.1 1.9zM587.5 381.7c-6.7 6.8-16.6 31.6-23.5 59.2-2.4 9.7-5.1 15.2-16.3 34-21.2 35.7-28.3 45.5-45.2 63-36.6 37.8-81.4 64.3-165 97.4C303.2 648.9 286 655 198 684.5c-93.1 31.2-114.7 39.2-119.4 44.4-1.9 2.1-1.9 2.1.5 2.2 1.3.1 4 .1 5.9 0 20.2-1.4 219.9-64.8 283-89.9C454.3 606.9 505.2 568 543.7 507c13.9-22.1 18.2-30.7 32.7-66 12.4-30.2 16.3-41.3 18.6-53.3 1.7-8.4-2.1-11.4-7.5-6z"/><path d="M477.2 388.1c-10.4 1.4-24.6 5.2-33.8 9-6.9 2.8-9.1 4.4-16.9 12.3-9.7 9.8-15.5 19-15.5 24.6 0 7 6.4 12.8 20 18.3 8.5 3.3 19.7 5.4 34 6.2 13.7.8 22 2.8 25.1 6.1 2.3 2.4 2.3 2.6.6 5.7-2.2 4-7 7.4-13.4 9.3-2.7.9-16.4 2.4-30.8 3.5-37.8 2.8-44.6 4.3-48 10.9-1.7 3.3-2 9.3-.5 12.1 2.8 5.2 15.2 8.4 32.5 8.3 23.3-.1 45.1-6.5 62.5-18.4 16-11 20.7-22.1 14-33.6-1.6-2.8-4.7-6.6-6.9-8.3-6-4.7-19.3-11.4-32-16.1-6.3-2.2-13-5-15-6-4.6-2.4-8.5-6-7.4-7 1.4-1.3 21.9-4 38.6-5.1 18.7-1.2 25.1-2.7 32.5-7.5 12.7-8.3 12.1-18.9-1.4-23-6.1-1.9-28.3-2.6-38.2-1.3z"/></svg>